<?xml version="1.0" standalone="no"?>
<!DOCTYPE svg PUBLIC "-//W3C//DTD SVG 1.1//EN" "http://www.w3.org/Graphics/SVG/1.1/DTD/svg11.dtd" >
<svg xmlns="http://www.w3.org/2000/svg">
<metadata>Generated by IcoMoon</metadata>
<defs>
<font id="icomoon" horiz-adv-x="1024">
<font-face units-per-em="1024" ascent="960" descent="-64" />
<missing-glyph horiz-adv-x="1024" />
<glyph unicode="&#x20;" d="" horiz-adv-x="512" />
<glyph unicode="&#xe600;" d="M281.395 115.2c14.131 0 25.574 14.106 25.574 31.488v346.573c0 17.408-11.443 31.514-25.574 31.514s-25.574-14.106-25.574-31.514v-346.573c0-17.382 11.443-31.488 25.574-31.488zM486.4 115.2c14.31 0 25.907 14.106 25.907 31.488v346.573c0 17.408-11.597 31.514-25.907 31.514s-25.907-14.106-25.907-31.514v-346.573c0-17.382 11.597-31.488 25.907-31.488zM665.779 115.2c14.157 0 25.6 14.106 25.6 31.488v346.573c0 17.408-11.443 31.514-25.6 31.514-14.106 0-25.549-14.106-25.549-31.514v-346.573c0-17.382 11.418-31.488 25.549-31.488zM844.8 678.4h76.8v25.6h25.6v32c0 70.554-58.342 121.6-128 121.6h-128c-14.106 55.066-64.205 102.4-122.854 102.4h-189.466c-58.675 0-108.749-47.334-122.88-102.4h-128c-69.658 0-128-51.046-128-121.6v-32h25.6v-25.6h76.8v-614.4c0-70.554 48.973-128 118.605-128h505.19c69.658 0 118.605 31.846 118.605 102.4v640zM358.4 908.8h225.792c23.962 0 44.8-20.762 56.090-51.2h-333.082c11.29 30.438 27.213 51.2 51.2 51.2zM793.344 50.56c0-34.944-28.493-63.36-63.539-63.36h-508.365c-35.021 0-67.942 28.39-67.942 63.36l0.102 627.84h639.744v-627.84zM819.2 806.4c34.842 0 76.8-41.498 76.8-76.8h-844.826c0 42.368 28.723 76.8 64.026 76.8h704z" horiz-adv-x="947" />
<glyph unicode="&#xe601;" d="M271.68-61.088c-8.096 0-16.224 3.136-22.4 9.312-12.384 12.448-12.384 32.672 0 45.12l452.736 456.064-452.736 456.064c-12.384 12.448-12.384 32.64 0 45.12s32.416 12.48 44.8 0l475.104-478.624c12.384-12.448 12.384-32.64 0-45.152l-475.104-478.624c-6.208-6.144-14.304-9.28-22.4-9.28z" />
<glyph unicode="&#xe602;" d="M981.312 704h-341.344v213.344c0 23.584-19.072 42.656-42.624 42.656h-554.656c-23.552 0-42.656-19.072-42.656-42.656v-981.344h1024v725.344c-0.064 23.584-19.136 42.656-42.72 42.656zM959.968 640v-640h-320v640h320zM575.968 896v-896h-128v224h-256v-224h-128v896h512zM223.968 0v192h192v-192h-192zM287.648 800.32h-128v-128h128v128zM255.968 704h-64v64h64v-64zM287.648 607.68h-128v-128h128v128zM255.968 512h-64v64h64v-64zM287.648 448h-128v-128h128v128zM255.968 352h-64v64h64v-64zM480.288 800.32h-128v-128h128v128zM447.968 704h-64v64h64v-64zM480.288 607.68h-128v-128h128v128zM447.968 512h-64v64h64v-64zM480.288 448h-128v-128h128v128zM447.968 352h-64v64h64v-64zM864.256 544.32h-128v-128h128v128zM831.968 448h-64v64h64v-64zM864.256 383.712h-128v-128h128v128zM831.968 288h-64v64h64v-64z" />
<glyph unicode="&#xe603;" d="M1006.943 739.811h-989.857c-9.421 0-17.057 13.195-17.057 29.55s7.636 29.55 17.057 29.55h392.543c0 45.934 30.574 88.269 102.4 87.947 71.797-0.322 102.4-42.013 102.4-87.947v0h392.514c9.421 0 17.086-19.31 17.086-28.496-0.029-9.187-7.636-30.603-17.086-30.603zM468.114 798.939v0c0 0 13.985 29.257 29.257 29.257 9.567 0 19.485 0 29.257 0 16.56 0 29.257-29.257 29.257-29.257v0zM64.015 96.768c-19.017 0-34.465 14.804-34.465 33.207v548.162c0 18.373 15.419 33.265 34.465 33.265h895.912c19.017 0 34.523-14.892 34.523-33.265v-548.162c0-18.403-15.419-33.207-34.523-33.207h-895.912zM936.492 637.44c0 8.338-7.314 15.038-16.296 15.038h-816.421c-9.011 0-16.325-6.729-16.325-15.038v-466.827c0-8.28 7.314-15.038 16.325-15.038h816.421c8.982 0 16.296 6.729 16.296 15.038v466.827zM768 504.232c-4.564 0-8.982 0.819-13.195 1.902l-102.459-151.698c8.163-8.806 13.253-20.392 13.253-33.265 0-27.531-22.967-49.883-51.2-49.883-28.292 0-51.2 22.352-51.2 49.883 0 7.929 2.048 15.243 5.383 21.884l-141.4 164.367c-5.5-1.96-11.352-3.218-17.554-3.218-4.593 0-8.982 0.819-13.224 1.902l-102.459-151.669c8.163-8.806 13.253-20.392 13.253-33.265 0-27.531-22.938-49.942-51.2-49.942-28.292 0-51.2 22.411-51.2 49.942s22.908 49.942 51.2 49.942c2.662 0 5.237-0.41 7.812-0.848l104.448 154.624c-6.115 8.251-9.83 18.286-9.83 29.199 0 27.56 22.938 49.883 51.2 49.883s51.2-22.323 51.2-49.883c0-9.333-2.809-17.964-7.373-25.424l139.586-162.231c6.583 2.926 13.78 4.681 21.358 4.681 2.692 0 5.266-0.41 7.841-0.848l104.389 154.624c-6.115 8.251-9.83 18.286-9.83 29.199 0 27.56 22.967 49.883 51.2 49.883 28.292 0 51.2-22.323 51.2-49.883 0-27.531-22.938-49.854-51.2-49.854zM256 337.876c-9.421 0-17.057-7.431-17.057-16.618 0-9.157 7.636-16.56 17.057-16.56s17.057 7.431 17.057 16.56c0 9.187-7.636 16.618-17.057 16.618zM409.6 570.763c-9.421 0-17.057-7.461-17.057-16.618 0-9.216 7.636-16.647 17.057-16.647s17.057 7.461 17.057 16.647c0 9.157-7.636 16.618-17.057 16.618zM614.4 337.876c-9.421 0-17.028-7.431-17.028-16.618 0-9.157 7.607-16.56 17.028-16.56s17.086 7.431 17.086 16.56c-0.029 9.187-7.665 16.618-17.086 16.618zM768 570.763c-9.421 0-17.028-7.461-17.028-16.618 0-9.216 7.607-16.647 17.028-16.647s17.086 7.461 17.086 16.647c-0.029 9.157-7.665 16.618-17.086 16.618zM29.257 67.511h965.486c16.179 0 29.257-13.136 29.257-29.257 0-16.179-13.078-29.257-29.257-29.257h-965.486c-16.15 0-29.257 13.078-29.257 29.257 0 16.121 13.107 29.257 29.257 29.257z" />
<glyph unicode="&#xe604;" d="M848-64h-672c-35.36 0-64 28.64-64 64v896c0 35.36 28.64 64 64 64h672c35.36 0 64-28.64 64-64v-896c0-35.36-28.64-64-64-64zM848 896h-672v-896h672v896zM528 192c35.36 0 64-28.672 64-64 0-35.36-28.64-64-64-64-35.328 0-64 28.64-64 64 0 35.328 28.64 64 64 64z" />
<glyph unicode="&#xe605;" d="M512-64c-282.767 0-512 229.233-512 512s229.233 512 512 512c282.747 0 512-229.233 512-512 0-282.747-229.253-512-512-512zM598.63 411.525c46.326 28.938 77.21 80.241 77.21 138.875 0 90.481-73.359 163.84-163.84 163.84s-163.84-73.359-163.84-163.84c0-58.634 30.904-109.937 77.21-138.875-85.279-32.154-147.886-110.244-157.655-204.165h41.247c12.616 100.966 98.611 179.2 203.039 179.2s190.382-78.234 203.039-179.2h41.247c-9.769 93.921-72.417 171.971-157.655 204.165zM389.12 550.4c0 67.871 55.009 122.88 122.88 122.88s122.88-55.009 122.88-122.88-55.009-122.88-122.88-122.88-122.88 55.009-122.88 122.88z" />
<glyph unicode="&#xe606;" d="M512-64c-282.767 0-512 229.233-512 512s229.233 512 512 512c282.747 0 512-229.233 512-512 0-282.747-229.253-512-512-512zM477.512 181.76h61.911v78.152h-61.911v-78.152zM652.227 640.348c-7.844 16.712-18.678 30.966-32.44 42.762s-29.594 20.767-47.514 26.911c-17.961 6.144-37.233 9.216-57.897 9.216-26.542 0-50.135-4.178-70.779-12.534s-38.216-20.029-52.716-35.021-25.436-33.178-32.809-54.559c-7.373-21.381-11.059-45.097-11.059-71.148h46.449c-0.492 19.169 1.72 36.864 6.636 53.084s12.288 30.351 22.118 42.394c9.83 12.042 22.364 21.504 37.601 28.385s32.686 10.322 52.347 10.322c14.275 0 27.791-2.458 40.55-7.373 12.8-4.915 23.962-11.674 33.567-20.275 9.564-8.602 17.203-19.046 22.835-31.334s8.479-25.805 8.479-40.55c0-19.169-4.567-36.618-13.64-52.347s-20.521-29.983-34.284-42.762c-15.729-14.254-29.123-27.034-40.161-38.339-11.080-11.284-19.927-23.081-26.563-35.369-6.636-12.329-11.428-26.071-14.377-41.329s-4.178-34.161-3.686-56.75h46.469c0.471 22.61 1.434 39.916 2.929 51.999 1.475 12.042 4.444 22.241 8.888 30.556 4.403 8.356 11.162 16.835 20.234 25.436 9.114 8.602 21.279 20.541 36.516 35.779 18.678 17.695 34.038 36.127 46.080 55.296s18.043 42.516 18.043 70.042c-0.020 21.627-3.932 40.796-11.817 57.508z" />
<glyph unicode="&#xe607;" d="M512 960c-282.771 0-512-229.217-512-512s229.229-512.001 512-512.001c282.777 0 512 229.217 512 512.001s-229.223 512-512 512v0zM767.997 319.999c0-60.593-49.118-109.71-109.71-109.71h-73.146l-73.14-73.146-73.14 73.146h-73.147c-60.593 0-109.716 49.118-109.716 109.71v256.003c0 60.593 49.123 109.71 109.716 109.71h292.573c60.593 0 109.716-49.118 109.716-109.71v-256.004h-0.007zM658.287 649.143h-292.573c-40.331 0-73.14-32.814-73.14-73.141v-256.004c0-40.333 32.808-73.141 73.14-73.141h73.147c9.695 0 19-3.851 25.858-10.711l47.281-47.281 47.28 47.281c6.86 6.86 16.165 10.711 25.86 10.711h73.146c40.333 0 73.141 32.808 73.141 73.141v256.004c0 40.327-32.808 73.141-73.14 73.141v0zM402.284 411.429c-20.194 0-36.571 16.376-36.571 36.571 0 20.2 16.376 36.576 36.571 36.576 20.2 0 36.576-16.376 36.576-36.576 0-20.194-16.376-36.571-36.576-36.571v0zM512 411.429c-20.199 0-36.571 16.376-36.571 36.571 0 20.2 16.372 36.576 36.571 36.576s36.569-16.376 36.569-36.576c0-20.194-16.371-36.571-36.569-36.571v0zM621.716 411.429c-20.2 0-36.576 16.376-36.576 36.571 0 20.2 16.376 36.576 36.576 36.576s36.571-16.376 36.571-36.576c0-20.194-16.376-36.571-36.571-36.571v0z" />
<glyph unicode="&#xe608;" d="M501.759 260.759l-0.953-2.303 17.628-17.7 2.303 0.953 301.166 301.899-19.012 19.050-301.131-301.9zM512.001 960c-282.768 0-512.001-229.233-512.001-512.001 0-282.734 229.233-512.001 512.001-512.001 282.733 0 511.999 229.265 511.999 512.001 0 282.768-229.233 512.001-511.999 512.001v0zM257.249 707.738h483.145v-154.072h-22.491v131.618h-438.163v-438.929h169.289v-22.535h-191.781v483.918zM401.696 465.412v28.887h238.336v-28.887h-238.336zM550.982 402.038v-28.926h-149.286v28.926h149.286zM401.696 553.66v28.887h238.336v-28.887h-238.336zM351.123 466.178v28.889h28.926v-28.889h-28.926zM380.055 402.773v-28.855h-28.926v28.855h28.926zM351.123 554.46v28.889h28.926v-28.889h-28.926zM740.388 223.781h-136.448v22.535h113.958v105.873h22.491v-128.407zM853.543 543.598l-322.308-321.865-82.831-33.467 35.916 86.74 318.532 319.42 7.497-7.535c23.662 23.655 29.732 29.29 47.323 11.628 17.628-17.661 12.032-23.732-11.63-47.393l7.5-7.529z" />
<glyph unicode="&#xe609;" d="M990.968-30.968h-957.935c-22.957 0-33.032 10.009-33.032 33.032v825.806c0 23.288 10.075 33.032 33.032 33.032h132.129v33.032c0 18.234 14.798 33.032 33.032 33.032h33.032c18.234 0 33.032-14.798 33.032-33.032v-33.032h495.484v33.032c0 18.234 14.831 33.032 33.032 33.032h33.032c18.267 0 33.032-14.798 33.032-33.032v-33.032h132.129c22.957 0 33.032-9.745 33.032-33.032v-825.806c0-23.023-10.075-33.032-33.032-33.032zM33.462 2.461h957.11v626.985h-957.11v-626.985zM231.226 893.935h-33.032v-99.097h33.032v99.097zM825.806 893.935h-33.032v-99.097h33.032v99.097zM990.968 827.871h-132.129v-33.032c0-18.234-14.765-33.032-33.032-33.032h-33.032c-18.201 0-33.032 14.798-33.032 33.032v33.032h-495.484v-33.032c0-18.234-14.798-33.032-33.032-33.032h-33.032c-18.234 0-33.032 14.798-33.032 33.032v33.032h-132.129v-165.161h957.935v165.161zM839.548 101.359h-655.096c-10.537 0-19.126 8.324-19.126 18.63v391.763c0 10.306 8.555 18.663 19.126 18.663h655.096c10.57 0 19.093-8.357 19.093-18.663v-391.73c0-10.339-8.522-18.663-19.093-18.663zM330.323 497.548h-132.129v-99.097h132.129v99.097zM330.323 365.419h-132.129v-99.097h132.129v99.097zM330.323 233.29h-132.129v-99.097h132.129v99.097zM495.484 497.548h-132.129v-99.097h132.129v99.097zM495.484 365.419h-132.129v-99.097h132.129v99.097zM495.484 233.29h-132.129v-99.097h132.129v99.097zM660.645 497.548h-132.129v-99.097h132.129v99.097zM660.645 365.419h-132.129v-99.097h132.129v99.097zM660.645 233.29h-132.129v-99.097h132.129v99.097zM825.806 497.548h-132.129v-99.097h132.129v99.097zM825.806 365.419h-132.129v-99.097h132.129v99.097zM825.806 233.29h-132.129v-99.097h132.129v99.097z" />
<glyph unicode="&#xe60a;" d="M893.952-64h-763.921c-71.812 0-130.031 58.219-130.031 130.031v763.921c0 71.812 58.219 130.031 130.031 130.031h763.921c71.812 0 130.031-58.219 130.031-130.031v-763.921c0.017-71.796-58.219-130.031-130.031-130.031zM759.742 464.516h-231.226v231.226c0 9.133-7.383 16.516-16.516 16.516-9.117 0-16.516-7.383-16.516-16.516v-231.226h-231.226c-9.117 0-16.516-7.383-16.516-16.516s7.399-16.516 16.516-16.516h231.226v-231.226c0-9.133 7.399-16.516 16.516-16.516s16.516 7.383 16.516 16.516v231.226h231.226c9.133 0 16.516 7.366 16.516 16.516s-7.399 16.516-16.516 16.516z" />
<glyph unicode="&#xe60b;" d="M893.952-64h-763.921c-71.812 0-130.031 58.219-130.031 130.031v763.921c0 71.812 58.219 130.031 130.031 130.031h763.921c71.812 0 130.031-58.219 130.031-130.031v-763.921c0.017-71.796-58.219-130.031-130.031-130.031zM759.791 464.384h-495.335c-9.117 0-16.516-7.383-16.516-16.516s7.399-16.516 16.516-16.516h495.335c9.133 0 16.516 7.366 16.516 16.516 0 9.133-7.383 16.516-16.516 16.516z" />
<glyph unicode="&#xe60c;" d="M512.203-64c-282.876 0-512.203 229.22-512.203 512.011 0 282.769 229.327 511.989 512.203 511.989 282.854 0 512.224-229.22 512.224-511.989 0-282.79-229.37-512.011-512.224-512.011zM831.66 645.11c-7.961 7.961-20.852 7.961-28.813 0l-393.047-393.516-189.309 189.544c-7.961 7.961-20.852 7.961-28.813 0s-7.961-20.894 0-28.855l203.716-203.972c3.97-4.012 9.199-5.955 14.406-5.955s10.415 1.964 14.406 5.955l407.432 407.944c7.982 7.982 7.982 20.894 0.021 28.855z" />
<glyph unicode="&#xe60d;" d="M0 597.504h96.222l344.439-344.439 344.371 344.439h96.256l-437.043-444.245h-7.168l-437.077 444.245zM1037.995 754.21v0.99l0.546-0.512-0.546-0.478z" />
<glyph unicode="&#xe60e;" d="M916.207-64h-808.414c-59.529 0-107.793 48.251-107.793 107.786v808.428c0 59.529 48.258 107.786 107.793 107.786h808.414c59.535 0 107.786-48.258 107.786-107.786v-808.421c0.007-59.535-48.251-107.793-107.786-107.793zM786.118 196.219l-97.307 103.465c30.358 41.67 48.469 92.815 48.469 148.316 0 139.503-113.077 252.587-252.587 252.587s-252.587-113.084-252.587-252.587 113.084-252.587 252.587-252.587c36.502 0 71.154 7.823 102.489 21.763 0.894 0.335 1.761 0.717 2.601 1.174 1.468 0.669 2.963 1.27 4.403 1.973l-0.56 0.655c4.335 3.748 7.12 9.23 7.12 15.401 0 11.319-9.161 20.48-20.48 20.48-4.949 0-9.441-1.83-12.984-4.758l-0.628 0.744c-25.204-10.602-52.9-16.473-81.961-16.473-116.879 0-211.627 94.747-211.627 211.627s94.747 211.627 211.627 211.627c116.879 0 211.627-94.747 211.627-211.627 0-55.822-21.641-106.557-56.948-144.37l2.615-3.092c-0.123-0.908-0.28-1.789-0.28-2.724 0-2.505 0.505-4.881 1.331-7.093 0.068-0.184 0.109-0.375 0.171-0.56 0.123-0.307 0.28-0.587 0.43-0.881 0.922-2.144 2.144-4.185 3.843-5.987l108.558-115.425c7.817-8.322 20.883-8.704 29.198-0.881 8.308 7.83 8.69 20.91 0.881 29.232zM593.92 461.653v13.653h-87.060l73.332 87.272-10.772 8.349-74.615-88.794h-10.028l-73.967 91.668-10.622-8.574 72.561-89.921h-83.627v-13.653h95.573v-40.96h-95.573v-13.653h95.573v-81.92h13.653v81.92h95.573v13.653h-95.573v40.96h95.573z" />
<glyph unicode="&#xe60f;" d="M916.207-64h-808.414c-59.529 0-107.793 48.251-107.793 107.786v808.428c0 59.529 48.258 107.786 107.793 107.786h808.414c59.535 0 107.786-48.258 107.786-107.786v-808.421c0.007-59.535-48.251-107.793-107.786-107.793zM510.532 714.254c-89.416 0-162.161-71.871-162.161-160.215s72.745-160.208 162.161-160.208c89.409 0 162.154 71.864 162.154 160.208 0.007 88.344-72.745 160.215-162.154 160.215zM770.758 369.91c-5.509 7.079-15.749 15.517-33.253 15.517-8.424 0-17.749-2.068-27.744-6.171-0.799 1.399-1.72 2.758-2.758 4.041-6.629 8.158-17.319 12.841-29.334 12.841-13.51 0-26.030-3.359-36.359-9.762-7.96 6.772-16.678 10.069-26.576 10.069-1.359 0-2.785 0.041-4.157 0.068-10.745 0.253-24.549 0.451-43.131-10.936-12.855-7.864-39.561-26.563-39.95-26.788-2.533-1.386-2.451 0.082-1.959-2.758 0.478-2.826 4.185-5.052 7.052-5.55l28.856-4.922c1.495-0.239 3.065 0 4.39 0.696 0.239 0.137 8.602 5.373 15.681 9.708 15.497 9.496 26.358 14.104 33.225 14.104 4.335 0 8.479-1.625 14.575-9.557l4.519-5.864c1.215-1.57 3.038-2.546 5.024-2.683 2.014-0.123 3.932 0.601 5.345 2.014l5.243 5.257c6.97 6.984 16.466 10.534 28.228 10.534 4.212 0 7.318-1.495 8.52-2.99 0.56-0.696 1.147-1.83 0.573-4.41l-3.229-14.384c-0.587-2.642 0.451-5.373 2.669-6.963 1.188-0.853 2.587-1.304 4.041-1.304 1.229 0 2.437 0.335 3.495 0.949l12.841 7.496c12.397 7.243 22.801 10.909 30.932 10.909 5.482 0 9.332-1.666 12.104-5.229 1.843-2.376 1.946-3.68 1.802-4.656-0.335-2.144-2.758-8.294-18.145-19.012-14.199-9.919-150.043-98.85-169.588-109.984-3.147-1.789-6.171-3.652-9.148-5.509-11.134-6.895-21.627-13.401-35.519-13.401-9.523 0-20.159 2.881-32.515 8.786-11.319 5.427-49.487 24.931-74.745 37.84l-0.28 0.143c-8.581 4.376-15.961 8.158-20.855 10.643-11.756 5.96-20.419 8.52-28.966 8.52-10.752 0-19.599-4.171-29.607-10.438l-15.64-10.056-44.435 97.451c21.449 9.748 56.866 25.627 76.261 33.171 11.687 4.547 21.763 6.758 30.816 6.758 16.336 0 28.747-7.721 43.11-16.65l0.437-0.266c1.051-0.669 2.109-1.318 3.181-1.973 9.981-6.158 44.291-30.891 44.626-31.136 0.089-0.068 0.191-0.137 0.3-0.198l0.58-0.389c0.096-0.055 0.198-0.123 0.273-0.157 1.543-0.881 38.284-21.811 75.776-21.811 25.375 0 40.12-0.908 46.401-2.881 1.318-0.403 1.843-0.683 2.028-0.799 0.096-0.464 0.109-1.638 0.109-2.642-0.642-2.068-10.882-5.919-21.347-6.403h-84.105c-25.559 0-63.508 15.189-63.884 15.333l-27.552 11.148c-0.826 0.335-1.7 0.492-2.594 0.492-2.266 0-4.383-1.092-5.666-2.935-1.823-2.615-1.55-6.185 0.649-8.506l20.384-21.429c0.478-0.505 3.086-3.215 7.352-7.011 0.908-0.812 2.014-1.359 3.202-1.597l29.416-6.042c14.957-3.864 27.976-5.816 38.694-5.816h84.371c0.109 0 11.708 0.253 23.429 4.321 15.92 5.495 24.33 15.319 24.33 28.385 0 15.387-6.868 24.59-21.641 28.945-12.827 3.802-30.802 3.802-53.576 3.802-28.064 0-57.658 15.667-61.809 17.934-4.335 3.133-35.219 25.347-45.595 31.744-1.058 0.655-2.103 1.304-3.181 1.973l-0.382 0.225c-17.114 10.656-33.28 20.692-57.317 20.692-12.465 0-25.743-2.813-40.605-8.588-27.293-10.643-83.395-36.359-89.702-39.253l-5.796-2.669c-3.4-1.563-4.902-5.571-3.366-8.95l61.986-135.933c0.826-1.802 2.403-3.161 4.335-3.721 1.905-0.56 4.014-0.253 5.68 0.826l34.905 22.398c7.277 4.574 11.394 6.267 15.183 6.267 3.912 0 9.236-1.775 16.759-5.598 4.874-2.478 12.247-6.24 20.821-10.615l0.628-0.335c26.761-13.681 63.413-32.413 74.991-37.949 16.077-7.707 30.515-11.441 44.162-11.441v0c21.572 0 36.523 9.264 49.773 17.483 2.84 1.761 5.523 3.427 8.212 4.963 19.852 11.291 157.321 101.267 171.657 111.281 17.975 12.534 27.225 24.16 29.136 36.611 1.297 8.697-1.058 17.005-7.059 24.685zM510.532 425.574c-71.7 0-130.028 57.631-130.028 128.464s58.327 128.464 130.028 128.464c71.687 0 130.021-57.631 130.021-128.464s-58.313-128.464-130.021-128.464zM550.714 624.715c-1.55-5.168-3.864-9.953-9.291-18.944l-28.665-48.415-28.665 48.606c-5.42 8.991-7.557 13.203-9.298 18.753h-33.314c2.908-3.639 7.939-11.1 13.558-19.709l26.918-42.1h-10.848c-8.909 0-13.94 0.382-20.33 1.529v-21.811c6.581 1.147 11.421 1.529 20.33 1.529h22.467l6.39-9.755v-5.741h-29.245c-8.909 0-13.558 0.382-20.337 1.529v-21.811c6.588 1.147 11.626 1.529 20.337 1.529h29.245v-13.012c0-9.38-0.58-17.224-1.55-24.685h28.665c-1.161 7.653-1.55 13.776-1.55 24.685v13.012h28.665c8.52 0 13.749-0.382 20.337-1.529v21.818c-6.772-1.154-11.626-1.536-20.337-1.536h-28.665v5.55l6.39 9.946h22.665c8.52 0 13.749-0.382 20.337-1.529v21.811c-6.39-1.147-11.626-1.529-20.337-1.529h-10.854l26.733 42.1c3.482 5.55 11.23 16.459 13.749 19.709h-33.498z" />
<glyph unicode="&#xe610;" d="M916.207-64h-808.414c-59.529 0-107.793 48.251-107.793 107.786v808.428c0 59.529 48.258 107.786 107.793 107.786h808.414c59.535 0 107.786-48.258 107.786-107.786v-808.421c0.007-59.535-48.251-107.793-107.786-107.793zM513.993 721.073c-147.913 0-268.233-121.207-268.233-270.179s120.327-270.172 268.233-270.172v22.521c-135.578 0-245.883 111.090-245.883 247.651 0 136.567 110.298 247.665 245.883 247.665 135.612 0 245.917-111.097 245.917-247.665h22.344c0.007 148.985-120.34 270.179-268.261 270.179zM501.999 336.923v22.508h-116.47c-2.342 0-4.246 1.905-4.246 4.253v220.945c0 2.355 1.905 4.28 4.246 4.28h180.709c2.335 0 4.226-1.918 4.226-4.28v-101.574h22.357v101.574c0 14.773-11.919 26.795-26.59 26.795h-180.709c-14.664 0-26.604-12.022-26.604-26.795v-220.918c0-14.759 11.94-26.788 26.604-26.788h116.477zM429.158 320.526v-18.118c0-14.493 11.701-26.269 26.078-26.269h39.212v22.508h-39.212c-2.028 0-3.727 1.72-3.727 3.761v18.118h-22.351zM498.572 485.076v22.521h-100.564v-22.521h100.564zM398.008 455.823v-22.514h60.491v22.514h-60.491zM538.638 559.022h-140.629v-22.514h140.629v22.514zM610.905 550.639v-22.514h26.051c2.028 0 3.734-1.713 3.734-3.755v-50.196h22.357v50.196c0 14.486-11.708 26.269-26.078 26.269h-26.064zM651.865 443.215c-73.441 0-133.188-60.17-133.188-134.144 0-73.96 59.747-134.13 133.188-134.13s133.188 60.163 133.202 134.13c0 73.96-59.761 134.144-133.202 134.144zM651.865 197.427c-61.119 0-110.824 50.067-110.824 111.616 0 61.563 49.719 111.643 110.824 111.643 61.119 0 110.838-50.080 110.851-111.643 0-61.549-49.732-111.616-110.851-111.616zM730.733 366.667c-0.478 1.038-1.12 1.973-1.877 2.813-0.266 0.294-6.704 7.291-14.309 12.759-9.134 6.56-21.32 3.441-26.296-1.427l-11.189-11.53c-0.055-0.055-0.082-0.143-0.137-0.212-0.055-0.055-0.123-0.082-0.171-0.137l-78.104-87.627c-0.096-0.109-0.123-0.253-0.212-0.362-0.799-0.976-1.495-2.014-1.946-3.243l-13.305-35.922c-1.563-4.212-0.464-8.97 2.758-12.083 2.137-2.041 4.908-3.106 7.721-3.106 1.495 0 2.99 0.294 4.403 0.935l34.4 14.814c0.123 0.055 0.225 0.123 0.348 0.184 1.174 0.519 2.171 1.283 3.079 2.144 0.143 0.143 0.348 0.198 0.492 0.348l81.442 87.306c0.041 0.041 0.041 0.096 0.068 0.123 2.935 3.065 9.039 9.496 11.319 12.117 5.687 6.67 4.512 15.776 1.516 22.105zM700.873 361.615l1.584 1.625c2.922-2.198 5.625-4.704 7.496-6.519-0.614-0.669-1.29-1.386-1.959-2.109l-7.12 7.004zM622.421 274.282l63.188 70.881 7.025-6.895-64.744-69.4-5.468 5.414z" />
<glyph unicode="&#xe611;" d="M916.207-64h-808.414c-59.529 0-107.793 48.251-107.793 107.786v808.428c0 59.529 48.258 107.786 107.793 107.786h808.414c59.535 0 107.786-48.258 107.786-107.786v-808.421c0.007-59.535-48.251-107.793-107.786-107.793zM698.395 509.631c2.096-2.314 4.977-3.482 7.864-3.482 2.546 0 5.106 0.915 7.134 2.765 4.349 3.953 4.669 10.684 0.717 15.025-19.825 21.866-45.452 33.321-76.158 34.072 21.456 9.824 46.667 14.015 75.25-1.946 5.12-2.867 11.585-1.024 14.452 4.11 2.854 5.134 1.010 11.612-4.11 14.473-56.375 31.485-102.816 0.089-130.546-18.678-0.403-0.266-0.785-0.526-1.174-0.792-2.546 22.576 1.331 52.975 25.068 87.443 0.56 0.819 0.997 1.468 1.304 1.946l0.717 1.113c7.823 12.111 18.548 28.692 11.612 41.472-2.533 4.676-8.281 10.247-21.251 10.247-9.496 0-18.828-2.28-27.839-4.485-7.776-1.898-15.121-3.693-21.374-3.693-5.693 0-9.544 1.447-12.868 4.84-18.814 19.19-31.949 27.020-45.315 27.020-16.794 0-29-13.524-37.758-25.306-8.554-11.503-22.781-12.063-47.2-12.063-16.814 0-39.902-1.789-46.264-17.292-4.219-10.281 0.526-22.323 14.111-35.792 0.567-0.56 1.249-1.195 2.109-2 28.092-26.255 41.759-55.685 40.701-87.559-37.908-10.875-76.916-39.021-108.134-78.288-33.806-42.51-53.193-91.86-53.193-135.352 0-30.228 4.519-54.47 13.804-74.103 9.748-20.623 24.753-36.4 45.875-48.224 37.738-21.149 95.43-30.174 192.887-30.174 97.294 0 154.999 9.107 192.922 30.44 21.108 11.878 36.093 27.655 45.868 48.251 9.291 19.613 13.797 43.745 13.797 73.817 0 46.572-20.412 95.532-57.467 137.858-26.358 30.099-59.508 54.77-94.174 70.601 24.248 3.174 54.839-0.020 78.636-26.262zM701.344 223.908c-34.079-19.176-90.371-27.723-182.518-27.723-93.587 0-148.18 8.212-182.525 27.45-34.208 19.176-48.804 50.21-48.804 103.772 0 38.775 17.702 83.279 48.572 122.102 28.877 36.318 66.028 62.901 100.147 71.844 6.854-3.482 21.975-10.172 42.762-13.599 7.537-1.242 16.275-2.109 25.975-2.109 22.665 0 50.572 4.758 80.541 20.644 80.309-24.89 164.68-109.493 164.68-198.861-0.007-53.303-14.602-84.262-48.831-103.52zM579.543 431.63c-2.307 2.239-5.291 3.359-8.97 3.359-2.574 0-4.785-0.505-6.656-1.536-1.864-1.038-3.441-2.335-4.683-3.919-1.256-1.57-2.533-3.495-3.85-5.734s-2.574-4.403-3.748-6.451l-31.826-52.613-35.56 55.815c-3.079 5.065-5.782 8.745-8.090 11.025-2.314 2.28-5.338 3.413-9.086 3.413-3.673 0-6.663-1.161-8.97-3.468-2.314-2.321-3.468-5.386-3.468-9.216 0-2.137 0.403-4.082 1.215-5.837 0.806-1.775 2.526-4.704 5.175-8.827l32.925-51.732h-13.981c-10.424 0-15.633-3.372-15.633-10.144 0-6.909 5.209-10.377 15.633-10.377h24.774v-15.879h-24.774c-10.424 0-15.633-3.454-15.633-10.377 0-6.758 5.209-10.144 15.633-10.144h24.774v-8.827c0-14.923 5.024-22.385 15.094-22.385 9.892 0 14.855 7.468 14.855 22.385v8.827h24.883c10.363 0 15.531 3.386 15.531 10.144 0 6.909-5.175 10.377-15.531 10.377h-24.883v15.879h24.883c10.363 0 15.531 3.454 15.531 10.377 0 6.758-5.175 10.144-15.531 10.144h-13.974l31.71 52.388c1.987 3.243 3.427 5.919 4.349 8.055s1.386 4.478 1.386 7.066c-0.020 3.243-1.181 5.973-3.502 8.212zM483.335 528.609c-15.865 2.505-27.976 7.25-34.584 10.308 0.976 21.832-3.748 42.858-14.083 62.682 0.212-0.034 0.416-0.075 0.628-0.109 2.403-0.362 4.785-0.546 7.134-0.546 10.861 0 20.958 3.905 28.979 11.325 9.38 8.67 18.234 16.855 23.907 16.452 2.922-0.212 8.322-2.847 17.483-14.206 6.048-7.509 14.288-11.899 23.839-12.684 12.827-1.065 27.163 4.547 39.322 15.374 1.775 1.584 3.536 3.099 5.263 4.567-12.957-30.938-12.957-58.027-9.066-78.432-28.877-14.534-58.723-19.49-88.822-14.732zM561.848 633.105c-7.598-6.786-16.589-10.643-23.47-10.076-3.707 0.307-6.683 1.891-9.052 4.847-11.667 14.466-21.675 21.272-32.454 22.057-14.848 1.085-26.44-9.632-39.861-22.036-5.052-4.676-11.271-6.485-18.5-5.379-14.664 2.246-30.563 15.804-44.25 37.506 3.707 1.167 10.499 2.417 22.671 2.417 25.143 0 48.893 0 64.239 20.623 11.155 15.005 17.176 16.739 20.726 16.739 6.67 0 16.541-6.752 30.167-20.651 7.277-7.434 16.719-11.203 28.023-11.203 8.8 0 17.749 2.185 26.399 4.301 6.731 1.645 13.162 3.215 19.108 3.707-0.041-0.71-0.014-1.434 0.096-2.164 0.73-5.004-9.53-13.025-21.429-22.316-6.731-5.243-14.329-11.182-22.412-18.371z" />
<glyph unicode="&#xe612;" d="M799.263 238.242c48.545 0 88.003 39.488 88.003 88.061 0 48.511-39.458 87.998-88.003 87.998s-87.998-39.488-87.998-87.998c-0.001-48.545 39.453-88.061 87.998-88.061v0zM799.263 382.304c30.879 0 56.001-25.123 56.001-56.001 0-30.943-25.123-56.065-56.001-56.065s-56.001 25.123-56.001 56.065c0 30.879 25.123 56.001 56.001 56.001v0zM768.067 705.215v254.752h-0.069v0.034h-31.998v-0.034h-608.003c-70.59 0-127.998-57.408-127.998-127.999v-767.97c0-70.556 57.408-127.998 127.998-127.998h768.003c70.591 0 127.998 57.441 127.998 127.998v641.217h-255.932zM32.003 831.967c0 53.023 42.973 96.001 95.995 96.001h608.003v-223.97h-623.998c-44.068 0-79.908 35.811-80 79.839v48.13zM992.002 182.494h-255.65c-44.131 0-80 35.874-80 80v127.554c0 44.096 35.869 80 80 80h255.65v-287.554zM992.002 502.046h-255.65c-61.763 0-112.003-50.24-112.003-111.998v-127.554c0-61.758 50.239-111.998 112.003-111.998h255.65v-86.499c0-52.994-43.008-96.001-96.001-96.001h-768.003c-53.023 0-95.995 43.008-95.995 96.001v641.827c20.351-20.835 48.671-33.823 80-33.823h880v-169.956z" />
<glyph unicode="&#xe613;" d="M665.993 386.202v-136.061c0-47.068 38.258-85.337 85.337-85.337h272.701v306.733h-272.701c-47.075 0-85.337-38.299-85.337-85.335zM818.435 412.072c51.784 0 93.874-42.119 93.874-93.867 0-51.814-42.090-93.935-93.874-93.935s-93.869 42.151-93.869 93.935c0.005 51.743 42.087 93.867 93.869 93.867zM818.435 258.4c32.938 0 59.737 26.799 59.737 59.805 0 32.938-26.799 59.737-59.737 59.737s-59.735-26.799-59.735-59.737c0-33.006 26.797-59.805 59.735-59.805zM85.337 721.091h665.617v238.909h-648.556c-56.559 0-102.401-45.846-102.401-102.405v-51.34c0.103-46.963 38.331-85.164 85.339-85.164zM85.337 686.961c-33.419 0-63.628 13.854-85.337 36.079v-684.635c0-56.53 45.839-102.408 102.401-102.408h819.226c56.53 0 102.405 45.878 102.405 102.408v92.264h-272.701c-65.882 0-119.472 53.596-119.472 119.469v136.059c0 65.878 53.589 119.469 119.472 119.469h272.701v181.292l-938.695 0.002z" />
<glyph unicode="&#xe614;" d="M512.003-64c282.771 0 511.997 229.226 511.997 511.997s-229.226 512.003-511.997 512.003-512.003-229.232-512.003-512.003c0-282.772 229.231-511.997 512.003-511.997v0zM512.003 922.351c261.972 0 474.348-212.376 474.348-474.353 0-262.002-212.376-474.349-474.348-474.349-261.978 0-474.354 212.347-474.354 474.349 0 261.977 212.376 474.353 474.354 474.353v0zM339.573 422.451l0.204 0.209 264.964-264.935 26.683 26.713-264.933 264.964 264.875 264.845-26.675 26.708-291.769-291.732 26.652-26.773z" />
<glyph unicode="&#xe615;" d="M515.932 351.322c-167.811 0-304.336 136.525-304.336 304.342 0 167.811 136.525 304.336 304.336 304.336 167.805 0 304.336-136.525 304.336-304.336 0-167.817-136.531-304.342-304.336-304.342v0zM515.932 899.689c-134.56 0-244.031-109.471-244.031-244.025 0-134.558 109.471-244.031 244.031-244.031 134.552 0 244.025 109.473 244.025 244.031 0 134.554-109.471 244.025-244.025 244.025v0zM531.816-64.532c-25.6 0-52.702 7.109-82.871 21.734-21.728 10.528-90.515 46.107-140.745 72.091l-1.185 0.618c-16.085 8.317-29.918 15.474-39.071 20.183-14.114 7.262-24.11 10.639-31.452 10.639-7.107 0-14.833-3.225-28.488-11.902l-65.503-42.559c-3.127-2.028-7.077-2.614-10.656-1.563-3.627 1.069-6.59 3.646-8.134 7.084l-116.33 258.211c-2.883 6.407-0.055 14.028 6.321 16.995l10.876 5.062c11.841 5.503 117.135 54.375 168.353 74.571 27.897 10.986 52.818 16.329 76.207 16.329 45.106 0 75.445-19.096 107.567-39.311l0.714-0.446c2.015-1.265 3.982-2.505 5.966-3.744 19.481-12.171 77.436-54.363 85.577-60.305 7.792-4.324 63.335-34.070 116.018-34.070 42.723 0 76.464 0 100.538-7.212 27.714-8.3 40.616-25.777 40.616-54.993 0-24.831-15.793-43.482-45.661-53.936-22.015-7.707-43.768-8.189-43.969-8.189h-158.34c-20.116 0-44.549 3.719-72.623 11.042l-55.205 11.481c-2.229 0.458-4.312 1.509-6.010 3.041-8.012 7.224-12.904 12.36-13.801 13.32l-38.254 40.721c-4.123 4.391-4.635 11.175-1.221 16.14 2.406 3.499 6.382 5.587 10.632 5.587 1.679 0 3.316-0.317 4.867-0.952l51.713-21.173c0.708-0.288 71.933-29.111 119.902-29.111h157.809c19.664 0.904 38.87 8.201 40.080 12.147-0.013 1.887-0.019 4.116-0.202 5.001-0.36 0.231-1.332 0.75-3.793 1.527-11.805 3.725-39.475 5.466-87.084 5.466-70.376 0-139.323 39.744-142.223 41.435-0.147 0.086-0.336 0.202-0.519 0.317l-1.087 0.714c-0.208 0.134-0.391 0.263-0.563 0.391-0.622 0.458-65.020 47.426-83.749 59.126-2.003 1.259-3.994 2.505-5.966 3.749l-0.825 0.519c-26.962 16.966-50.246 31.622-80.91 31.622-16.989 0-35.907-4.202-57.838-12.837-36.403-14.352-102.871-44.514-143.121-63.017l83.396-185.11 29.355 19.071c18.792 11.927 35.39 19.847 55.573 19.847 16.037 0 32.294-4.843 54.358-16.184 9.185-4.726 23.035-11.889 39.145-20.22l0.519-0.275c47.401-24.52 119.040-61.576 140.28-71.872 23.2-11.242 43.158-16.709 61.015-16.709 26.089 0 45.795 12.366 66.663 25.459 5.6 3.511 11.267 7.066 17.166 10.467 36.69 21.137 291.64 190.064 318.29 208.91 28.88 20.378 33.429 32.055 34.045 36.128 0.281 1.845 0.098 4.335-3.364 8.836-5.209 6.772-12.427 9.93-22.723 9.93-15.262 0-34.791-6.968-58.040-20.715l-24.104-14.241c-1.985-1.179-4.257-1.795-6.558-1.795-2.742 0-5.369 0.855-7.579 2.461-4.159 3.017-6.125 8.208-5.020 13.228l6.064 27.334c1.087 4.892-0.006 7.054-1.076 8.384-2.265 2.822-8.086 5.667-15.982 5.667-22.070 0-39.897-6.737-52.99-20.006l-9.844-9.985c-2.644-2.681-6.235-4.062-10.027-3.811-3.725 0.238-7.163 2.089-9.429 5.068l-8.477 11.164c-11.444 15.066-19.218 18.155-27.359 18.155-12.885 0-33.282-8.769-62.358-26.798-13.276-8.226-28.964-18.199-29.411-18.437-2.492-1.326-5.436-1.795-8.244-1.326l-54.15 9.349c-5.369 0.929-12.33 5.161-13.246 10.534-0.922 5.38-1.069 2.589 3.694 5.245 0.733 0.41 50.851 35.926 74.961 50.87 34.888 21.637 60.776 21.259 80.94 20.775 2.601-0.061 5.264-0.128 7.811-0.128 18.571 0 34.938-6.266 49.868-19.132 19.42 12.152 42.895 18.546 68.256 18.546 22.534 0 42.602-8.892 55.047-24.402 1.942-2.419 3.677-4.984 5.184-7.657 18.773 7.792 36.256 11.738 52.061 11.738 32.856 0 52.080-16.031 62.419-29.472 11.248-14.608 15.688-30.376 13.196-46.869-3.579-23.652-20.946-45.753-54.675-69.551-26.907-19.029-284.891-189.923-322.18-211.396-5.039-2.906-10.076-6.071-15.413-9.416-24.861-15.602-52.923-33.209-93.417-33.209v0 0.006zM493.207 500.215c1.821 14.173 2.908 29.080 2.908 46.895v24.714h-54.89c-16.353 0-25.806-0.727-38.168-2.906v41.435c12.721-2.181 21.448-2.908 38.168-2.908h54.89v10.908l-11.994 18.534h-42.168c-16.72 0-25.806-0.725-38.162-2.906v41.435c11.994-2.181 21.441-2.906 38.162-2.906h20.355l-50.523 79.969c-10.546 16.354-19.994 30.534-25.447 37.441h62.522c3.267-10.54 7.268-18.54 17.447-35.621l53.797-92.33 53.795 91.965c10.181 17.086 14.541 26.174 17.447 35.987h62.889c-4.726-6.18-19.267-26.901-25.808-37.441l-50.162-79.969h20.355c16.354 0 26.174 0.725 38.168 2.906v-41.435c-12.36 2.181-22.175 2.906-38.168 2.906h-42.528l-11.994-18.899v-10.546h53.795c16.354 0 25.447 0.725 38.168 2.913v-41.442c-12.36 2.181-22.175 2.906-38.168 2.906h-53.795v-24.714c0-20.721 0.727-32.355 2.906-46.888h-53.797z" />
<glyph unicode="&#xe616;" d="M963.557-64.002h-903.114c-33.33 0-60.443 27.113-60.443 60.443v903.115c0 33.332 27.113 60.443 60.443 60.443h903.114c33.33 0 60.443-27.112 60.443-60.443v-903.114c0-33.332-27.113-60.445-60.443-60.445v0zM61.47-2.531h901.060v901.063h-901.060v-901.063zM48.254 472.584h927.492v-61.464h-927.492v61.464zM481.268 908.21h61.464v-927.5h-61.464v927.5zM135.064 733.345h282.752v-61.47h-282.752v61.47zM245.702 843.984h61.47v-282.746h-61.47v282.746zM398.136 126.509l-78.235 78.241 78.235 78.238-43.46 43.457-78.235-78.235-78.241 78.235-43.46-43.457 78.235-78.238-78.235-78.241 43.46-43.46 78.241 78.238 78.235-78.238 43.46 43.46zM620.632 733.345h282.752v-61.47h-282.752v61.47zM620.632 297.256h282.752v-61.47h-282.752v61.47zM620.632 162.643h282.752v-61.464h-282.752v61.464z" />
<glyph unicode="&#xe617;" d="M511.998-64c-282.789 0-511.998 229.253-511.998 512.002 0 282.788 229.208 511.998 511.998 511.998 282.748 0 512.002-229.21 512.002-511.998 0-282.749-229.254-512.002-512.002-512.002v0 0zM511.998 917.332c-259.232 0-469.331-210.098-469.331-469.33 0-259.192 210.099-469.335 469.331-469.335 259.19 0 469.334 210.144 469.334 469.335 0 259.232-210.144 469.33-469.334 469.33v0 0zM703.998 277.335h-277.335c-11.795 0-21.333 9.577-21.333 21.333 0 11.795 9.538 21.333 21.333 21.333h277.335c11.801 0 21.333-9.538 21.333-21.333 0-11.757-9.532-21.333-21.333-21.333v0 0zM703.998 426.669h-277.335c-11.795 0-21.333 9.571-21.333 21.333 0 11.795 9.538 21.333 21.333 21.333h277.335c11.801 0 21.333-9.538 21.333-21.333 0-11.761-9.532-21.333-21.333-21.333v0 0zM703.998 576.002h-277.335c-11.795 0-21.333 9.572-21.333 21.333 0 11.797 9.538 21.335 21.333 21.335h277.335c11.801 0 21.333-9.538 21.333-21.335 0-11.761-9.532-21.333-21.333-21.333v0 0zM341.335 277.335h-21.333c-11.801 0-21.333 9.577-21.333 21.333 0 11.795 9.532 21.333 21.333 21.333h21.333c11.757 0 21.328-9.538 21.328-21.333 0-11.757-9.571-21.333-21.328-21.333v0 0zM341.335 426.669h-21.333c-11.801 0-21.333 9.571-21.333 21.333 0 11.795 9.532 21.333 21.333 21.333h21.333c11.757 0 21.328-9.538 21.328-21.333 0-11.761-9.571-21.333-21.328-21.333v0 0zM341.335 576.002h-21.333c-11.801 0-21.333 9.572-21.333 21.333 0 11.797 9.532 21.335 21.333 21.335h21.333c11.757 0 21.328-9.538 21.328-21.335 0-11.761-9.571-21.333-21.328-21.333v0 0z" />
<glyph unicode="&#xe618;" d="M512.003 960c-282.774 0-512.003-229.229-512.003-512.003 0-282.769 229.229-511.998 512.003-511.998 282.768 0 511.997 229.229 511.997 511.998 0 282.774-229.229 512.003-511.997 512.003v0zM511.978 813.491c20.913 0 37.865-16.954 37.865-37.861 0-20.914-16.954-37.861-37.865-37.861-20.909 0-37.861 16.948-37.861 37.861 0 20.908 16.953 37.861 37.861 37.861v0zM108.31 449.604c-20.913 0-37.861 16.948-37.861 37.861s16.949 37.861 37.861 37.861c20.914 0 37.863-16.949 37.863-37.861 0-20.914-16.954-37.861-37.863-37.861v0zM740.586 98.099c-63.409 20.494-142.27 32.646-227.759 32.646-85.493 0-164.355-12.154-227.763-32.646-1.196 10.899-3.668 22.94-7.74 36.153 64.674 22.036 146.495 35.22 235.503 35.22 88.994 0 170.825-13.184 235.508-35.22-4.081-13.213-6.563-25.254-7.749-36.153v0zM793.682 271.185c-26.089-44.716-37.423-80.928-40.596-109.688-66.885 21.621-150.079 34.439-240.259 34.439s-173.378-12.818-240.258-34.439c-3.174 28.76-14.508 64.971-40.601 109.688l-85.795 147.070c0 0 183.853-196.094 269.653-159.326 83.809 35.923 83.853 261.134 97.001 389.18 0 0 13.194-353.257 97.016-389.18 85.781-36.773 269.649 159.326 269.649 159.326s-0.005 0-85.81-147.070v0zM931.534 449.604c-20.909 0-37.859 16.948-37.859 37.861s16.951 37.861 37.859 37.861c20.913 0 37.869-16.949 37.869-37.861 0-20.914-16.955-37.861-37.869-37.861v0z" />
<glyph unicode="&#xe619;" d="M512.003 960c-282.772 0-512.003-229.232-512.003-512.003 0-282.766 229.231-511.997 512.003-511.997 282.765 0 511.996 229.231 511.996 511.997 0 282.77-229.231 512.003-511.996 512.003v0zM512.003 923.429c262.141 0 475.426-213.285 475.426-475.432 0-116.841-42.452-223.904-112.637-306.77-53.181 116.897-199.847 197.060-365.442 197.060-162.7 0-308.913-78.642-363.562-193.114-68.177 82.302-109.22 187.859-109.22 302.83 0 262.141 213.287 475.426 475.433 475.426v0zM172.512 115.622c0.011 0.039 0.046 0.062 0.056 0.095 42.71 109.52 181.199 186.001 336.781 186.001 158.498 0 297.348-78.126 338.259-190.12-86.058-85.856-204.74-139.020-335.611-139.020-132.875-0.006-253.13 54.861-339.485 143.045v0zM510.48 374.857c111.086 0 201.145 90.059 201.145 201.147 0 111.081-90.059 201.139-201.145 201.139s-201.141-90.059-201.141-201.139c0-111.088 90.054-201.147 201.141-201.147v0zM510.48 740.574c90.752 0 164.57-73.822 164.57-164.576s-73.818-164.57-164.57-164.57c-90.754 0-164.57 73.818-164.57 164.57s73.822 164.576 164.57 164.576v0z" />
<glyph unicode="&#xe61a;" d="M1021.44 399.155c-0.538-5.658-1.51-11.213-2.202-16.845-1.306-10.189-2.739-20.352-4.659-30.362-1.306-6.861-2.842-13.542-4.454-20.301-1.946-8.397-4.045-16.794-6.451-25.062-2.099-7.347-4.403-14.643-6.81-21.888-2.458-7.142-5.043-14.157-7.808-21.146-2.995-7.808-6.042-15.59-9.395-23.194-2.56-5.658-5.402-11.162-8.090-16.742-4.096-8.397-8.192-16.896-12.749-25.062-1.101-2.048-2.458-3.942-3.61-5.939-13.107-22.656-27.699-44.288-43.955-64.589v0c-93.85 116.941-237.696 192-399.334 192-161.613 0-305.485-75.059-399.334-192v0c-16.282 20.301-30.874 41.958-43.955 64.589-1.152 1.997-2.483 3.891-3.61 5.939-4.582 8.141-8.627 16.64-12.749 25.062-2.739 5.606-5.555 11.11-8.064 16.742-3.379 7.603-6.426 15.411-9.446 23.194-2.714 6.989-5.35 14.003-7.757 21.146-2.432 7.245-4.71 14.541-6.835 21.888-2.381 8.243-4.48 16.64-6.451 25.062-1.562 6.758-3.174 13.44-4.454 20.301-1.894 10.010-3.328 20.147-4.634 30.362-0.717 5.658-1.664 11.213-2.202 16.845-1.536 16.102-2.458 32.358-2.458 48.845 0 70.682 14.336 138.035 40.243 199.296 12.954 30.618 28.8 59.725 47.206 86.963s39.347 52.608 62.515 75.776c92.57 92.646 220.57 149.965 361.958 149.965s269.389-57.318 362.035-149.965c23.142-23.168 44.109-48.538 62.49-75.776s34.253-56.346 47.206-86.963c25.958-61.261 40.243-128.614 40.243-199.296 0.026-16.486-0.947-32.742-2.432-48.845zM511.898 832c-127.258 0-230.4-103.142-230.4-230.4s103.142-230.4 230.4-230.4c127.232 0 230.4 103.117 230.4 230.4s-103.168 230.4-230.4 230.4zM511.898 422.4c-98.97 0-179.2 80.205-179.2 179.2s80.23 179.2 179.2 179.2c98.995 0 179.2-80.23 179.2-179.2s-80.205-179.2-179.2-179.2zM147.2 88.909c84.25 109.261 216.064 179.891 364.698 179.891s280.448-70.656 364.698-179.891c-92.851-94.285-221.85-152.909-364.698-152.909-142.822 0-271.846 58.624-364.698 152.909z" />
<glyph unicode="&#xe61b;" d="M776.113 630.469c-8.258 3.301-18.168-0.824-21.469-9.908l-89.996-236.139c-3.301-8.252 0.826-18.161 9.909-21.462 1.65-0.826 4.127-0.826 5.776-0.826 6.608 0 13.209 4.127 15.691 10.727l89.998 236.139c2.474 9.085-1.658 18.168-9.909 21.469v0zM207.238 547.905h-127.15c-9.084 0-16.51-7.432-16.51-16.516s7.426-16.51 16.51-16.51h127.15c9.084 0 16.516 7.426 16.516 16.51s-7.432 16.516-16.516 16.516v0zM748.038 717.159v37.985h20.643c9.084 0 16.51 7.426 16.51 16.51v72.662c0 9.077-7.426 16.51-16.51 16.51h-176.688c-9.084 0-16.516-7.432-16.516-16.51v-72.662c0-9.084 7.432-16.51 16.516-16.51h20.636v-37.985c-157.694-31.37-276.591-170.903-276.591-337.688 0-189.903 154.4-344.296 344.295-344.296 189.903 0 344.296 154.393 344.296 344.296 0 166.785-118.89 305.492-276.591 337.688v0zM608.503 788.17v39.63h142.841v-39.63h-142.841zM715.010 755.144v-34.677c-11.559 0.826-23.118 3.301-34.677 3.301s-23.118-2.475-34.677-3.301v34.677h69.355zM680.333 68.201c-171.734 0-311.269 139.533-311.269 311.269s139.535 311.269 311.269 311.269c171.735 0 311.269-139.533 311.269-311.269s-139.533-311.269-311.269-311.269v0zM165.127 376.996h-53.662c-9.084 0-16.516-7.432-16.516-16.516 0-9.077 7.432-16.51 16.516-16.51h53.662c9.084 0 16.518 7.432 16.518 16.51 0 9.082-7.434 16.516-16.518 16.516v0zM364.939 684.139c0 9.076-7.434 16.51-16.518 16.51h-331.911c-9.077 0-16.51-7.434-16.51-16.51 0-9.084 7.432-16.518 16.51-16.518h331.911c9.084 0 16.518 7.434 16.518 16.518v0z" />
<glyph unicode="&#xe61c;" d="M207.238 547.905h-127.15c-9.084 0-16.51-7.432-16.51-16.516s7.426-16.51 16.51-16.51h127.15c9.084 0 16.516 7.426 16.516 16.51s-7.432 16.516-16.516 16.516v0zM165.127 376.996h-53.662c-9.084 0-16.516-7.431-16.516-16.516 0-9.077 7.432-16.508 16.516-16.508h53.662c9.084 0 16.516 7.431 16.516 16.508 0.002 9.082-7.432 16.516-16.516 16.516v0zM364.939 684.139c0 9.076-7.432 16.51-16.518 16.51h-331.911c-9.077 0-16.51-7.434-16.51-16.51 0-9.084 7.432-16.518 16.51-16.518h331.91c9.085 0 16.519 7.434 16.519 16.518v0zM748.038 717.159v37.985h20.643c9.084 0 16.51 7.426 16.51 16.51v72.662c0 9.077-7.426 16.51-16.51 16.51h-176.689c-9.084 0-16.515-7.432-16.515-16.51v-72.662c0-9.084 7.431-16.51 16.515-16.51h20.638v-37.985c-157.694-31.37-276.593-170.903-276.593-337.688 0.002-189.903 154.401-344.296 344.298-344.296 189.904 0 344.296 154.393 344.296 344.296 0 166.785-118.892 305.492-276.593 337.688zM608.504 788.17v39.63h142.841v-39.63h-142.841zM645.657 755.144h69.355v-34.677c-11.559 0.826-23.118 3.301-34.677 3.301s-23.118-2.475-34.677-3.301v34.677zM786.022 609.002l-89.998-236.139c-2.482-6.604-9.084-10.727-15.692-10.727-1.648 0-4.127 0-5.776 0.826-9.084 3.303-13.207 13.209-9.909 21.464l89.998 236.139c3.301 9.084 13.209 13.209 21.469 9.908 8.252-3.304 12.385-12.386 9.909-21.47z" />
</font>
</defs>
</svg>
